<mxfile host="Electron" agent="Mozilla/5.0 (Windows NT 10.0; Win64; x64) AppleWebKit/537.36 (KHTML, like Gecko) draw.io/26.2.15 Chrome/134.0.6998.205 Electron/35.2.1 Safari/537.36" version="26.2.15">
  <diagram name="Page-1" id="Afbx9XMjF_XyRp8Uo_no">
    <mxGraphModel dx="1042" dy="634" grid="1" gridSize="10" guides="1" tooltips="1" connect="1" arrows="1" fold="1" page="1" pageScale="1" pageWidth="850" pageHeight="1100" math="0" shadow="0">
      <root>
        <mxCell id="0" />
        <mxCell id="1" parent="0" />
        <mxCell id="1H_YZtCrz8uNEtQL6Oef-2" value="" style="rounded=0;whiteSpace=wrap;html=1;" vertex="1" parent="1">
          <mxGeometry x="270" y="200" width="10" height="240" as="geometry" />
        </mxCell>
        <mxCell id="1H_YZtCrz8uNEtQL6Oef-3" value="" style="rounded=0;whiteSpace=wrap;html=1;" vertex="1" parent="1">
          <mxGeometry x="350" y="240" width="10" height="160" as="geometry" />
        </mxCell>
        <mxCell id="1H_YZtCrz8uNEtQL6Oef-4" value="" style="rounded=0;whiteSpace=wrap;html=1;" vertex="1" parent="1">
          <mxGeometry x="470" y="280" width="10" height="80" as="geometry" />
        </mxCell>
        <mxCell id="1H_YZtCrz8uNEtQL6Oef-5" value="" style="rounded=0;whiteSpace=wrap;html=1;" vertex="1" parent="1">
          <mxGeometry x="590" y="280" width="10" height="80" as="geometry" />
        </mxCell>
        <mxCell id="1H_YZtCrz8uNEtQL6Oef-6" value="&lt;font face=&quot;Courier New&quot; style=&quot;font-size: 18px;&quot;&gt;z&lt;sub&gt;0&lt;/sub&gt;&lt;/font&gt;" style="text;html=1;align=center;verticalAlign=middle;resizable=0;points=[];autosize=1;strokeColor=none;fillColor=none;" vertex="1" parent="1">
          <mxGeometry x="220" y="300" width="40" height="40" as="geometry" />
        </mxCell>
        <mxCell id="1H_YZtCrz8uNEtQL6Oef-7" value="&lt;font face=&quot;Courier New&quot; style=&quot;font-size: 18px;&quot;&gt;z&lt;sub&gt;1&lt;/sub&gt;&lt;/font&gt;" style="text;html=1;align=center;verticalAlign=middle;resizable=0;points=[];autosize=1;strokeColor=none;fillColor=none;" vertex="1" parent="1">
          <mxGeometry x="300" y="300" width="40" height="40" as="geometry" />
        </mxCell>
        <mxCell id="1H_YZtCrz8uNEtQL6Oef-8" value="&lt;font face=&quot;Courier New&quot; style=&quot;font-size: 18px;&quot;&gt;z&lt;sub&gt;t&lt;/sub&gt;&lt;/font&gt;" style="text;html=1;align=center;verticalAlign=middle;resizable=0;points=[];autosize=1;strokeColor=none;fillColor=none;" vertex="1" parent="1">
          <mxGeometry x="420" y="300" width="40" height="40" as="geometry" />
        </mxCell>
        <mxCell id="1H_YZtCrz8uNEtQL6Oef-9" value="&lt;font face=&quot;Courier New&quot; style=&quot;font-size: 18px;&quot;&gt;z&lt;sub&gt;T-1&lt;/sub&gt;&lt;/font&gt;" style="text;html=1;align=center;verticalAlign=middle;resizable=0;points=[];autosize=1;strokeColor=none;fillColor=none;" vertex="1" parent="1">
          <mxGeometry x="530" y="300" width="60" height="40" as="geometry" />
        </mxCell>
        <mxCell id="1H_YZtCrz8uNEtQL6Oef-10" value="&lt;font face=&quot;Courier New&quot; style=&quot;font-size: 18px;&quot;&gt;z&lt;sub&gt;T&lt;/sub&gt;&lt;/font&gt;" style="text;html=1;align=center;verticalAlign=middle;resizable=0;points=[];autosize=1;strokeColor=none;fillColor=none;" vertex="1" parent="1">
          <mxGeometry x="620" y="300" width="40" height="40" as="geometry" />
        </mxCell>
        <mxCell id="1H_YZtCrz8uNEtQL6Oef-11" value="&lt;font face=&quot;Courier New&quot;&gt;&lt;span style=&quot;font-size: 18px;&quot;&gt;...&lt;/span&gt;&lt;/font&gt;" style="text;html=1;align=center;verticalAlign=middle;resizable=0;points=[];autosize=1;strokeColor=none;fillColor=none;" vertex="1" parent="1">
          <mxGeometry x="365" y="300" width="60" height="40" as="geometry" />
        </mxCell>
        <mxCell id="1H_YZtCrz8uNEtQL6Oef-12" value="&lt;font face=&quot;Courier New&quot;&gt;&lt;span style=&quot;font-size: 18px;&quot;&gt;...&lt;/span&gt;&lt;/font&gt;" style="text;html=1;align=center;verticalAlign=middle;resizable=0;points=[];autosize=1;strokeColor=none;fillColor=none;" vertex="1" parent="1">
          <mxGeometry x="480" y="300" width="60" height="40" as="geometry" />
        </mxCell>
      </root>
    </mxGraphModel>
  </diagram>
</mxfile>
